<svg width="670" height="670" viewBox="0 0 670 670" fill="none" xmlns="http://www.w3.org/2000/svg">
<circle cx="335" cy="335" r="335" fill="#CFD4F6"/>
<rect x="130.166" y="109.77" width="264" height="95" transform="rotate(33 130.166 109.77)" fill="url(#paint0_linear_84_69)"/>
<rect x="335" y="91" width="95.5392" height="458" transform="rotate(30 335 91)" fill="url(#paint1_linear_84_69)"/>
<rect x="418" y="221" width="245" height="70" transform="rotate(30 418 221)" fill="url(#paint2_linear_84_69)"/>
<rect x="316.343" y="396.693" width="245.125" height="70" transform="rotate(30 316.343 396.693)" fill="url(#paint3_linear_84_69)"/>
<rect x="392.5" y="265" width="72.0382" height="189" transform="rotate(30 392.5 265)" fill="url(#paint4_linear_84_69)"/>
<rect x="551.5" y="335" width="72.4061" height="189" transform="rotate(30 551.5 335)" fill="url(#paint5_linear_84_69)"/>
<defs>
<linearGradient id="paint0_linear_84_69" x1="262.166" y1="109.77" x2="262.166" y2="204.77" gradientUnits="userSpaceOnUse">
<stop stop-color="#651DEB"/>
<stop offset="0.552885" stop-color="#4F17B8"/>
<stop offset="0.995192" stop-color="#391085"/>
</linearGradient>
<linearGradient id="paint1_linear_84_69" x1="382.77" y1="91" x2="382.77" y2="549" gradientUnits="userSpaceOnUse">
<stop stop-color="#651DEB"/>
<stop offset="0.552885" stop-color="#4F17B8"/>
<stop offset="0.995192" stop-color="#391085"/>
</linearGradient>
<linearGradient id="paint2_linear_84_69" x1="540.5" y1="221" x2="540.5" y2="291" gradientUnits="userSpaceOnUse">
<stop stop-color="#583BC8"/>
<stop offset="0.884615" stop-color="#3B2887"/>
<stop offset="1" stop-color="#2B1D62"/>
</linearGradient>
<linearGradient id="paint3_linear_84_69" x1="438.906" y1="396.693" x2="438.906" y2="466.693" gradientUnits="userSpaceOnUse">
<stop stop-color="#583BC8"/>
<stop offset="0.884615" stop-color="#3B2887"/>
<stop offset="1" stop-color="#2B1D62"/>
</linearGradient>
<linearGradient id="paint4_linear_84_69" x1="428.519" y1="265" x2="428.519" y2="454" gradientUnits="userSpaceOnUse">
<stop stop-color="#583BC8"/>
<stop offset="0.884615" stop-color="#3B2887"/>
<stop offset="1" stop-color="#2B1D62"/>
</linearGradient>
<linearGradient id="paint5_linear_84_69" x1="587.703" y1="335" x2="587.703" y2="524" gradientUnits="userSpaceOnUse">
<stop stop-color="#583BC8"/>
<stop offset="0.884615" stop-color="#3B2887"/>
<stop offset="1" stop-color="#2B1D62"/>
</linearGradient>
</defs>
</svg>
